# xmcd
#
# Track frame offsets: 
#        150
#        79098
#        92503
#        119741
#        148831
#
# Disc length: 2931 seconds
#
# Revision: 0
# Processed by: cddbd v1.5.2PL0 Copyright (c) Steve Scherf et al.
# Submitted via: ExactAudioCopy v0.95a4
#
DISCID=400b7105
DTITLE=Alvin Lee and Co. - Live At The Academy Of Music New York 1975 (D
DTITLE=isc 2)
DYEAR=2017
DGENRE=Blues
TTITLE0=Percy's Roots
TTITLE1=Money Honey
TTITLE2=Going Through The Door
TTITLE3=I'm Writing You A Letter
TTITLE4=Ride My Train
EXTD=
EXTT0=
EXTT1=
EXTT2=
EXTT3=
EXTT4=
PLAYORDER=
